# xmcd
#
# Track frame offsets:
# 150
# 19968
# 39651
# 57303
# 76741
# 91838
# 108344
# 141612
#
# Disc length: 2031 seconds
#
# Revision: 1
# Processed by: cddbd v1.5.2PL0 Copyright (c) Steve Scherf et al.
# Submitted via: CedeCatalogueitor 2.6.0.6 http://personales.ya.com/cdcatalogueitor
#
DISCID=6507ed08
DTITLE=Luther Allison - Time
DYEAR=1980
DGENRE=
TTITLE0=Time
TTITLE1=Give It All
TTITLE2=Down South
TTITLE3=I Can't Tell You What To Do
TTITLE4=Compromizing For Your Needs
TTITLE5=It's Partyin' Time
TTITLE6=You're Doing A Super Homework
TTITLE7=Just My Guitar (And Me)
EXTD=
EXTT0=
EXTT1=
EXTT2=
EXTT3=
EXTT4=
EXTT5=
EXTT6=
EXTT7=
PLAYORDER=
